# xmcd
#
# Track frame offsets: 
#        150
#        22596
#        59313
#        85838
#        120836
#        151784
#        196674
#        217099
#        239748
#
# Disc length: 3629 seconds
#
# Revision: 0
# Processed by: cddbd v1.5.2PL0 Copyright (c) Steve Scherf et al.
# Submitted via: ExactAudioCopy v0.99pb5
#
DISCID=660e2b09
DTITLE=The Aristocrats - The Aristocrats
DYEAR=2011
DGENRE=Fusion
TTITLE0=Boing! I'm In The Back
TTITLE1=Sweaty Knockers
TTITLE2=Bad Asteroid
TTITLE3=Get It Like That
TTITLE4=Furtive Jack
TTITLE5=I Want A Parrot
TTITLE6=See You Next Tuesday
TTITLE7=Blues Fuckers
TTITLE8=Flatlands
EXTD=
EXTT0=
EXTT1=
EXTT2=
EXTT3=
EXTT4=
EXTT5=
EXTT6=
EXTT7=
EXTT8=
PLAYORDER=
